<svg width="1579" height="418" viewBox="0 0 1579 418" fill="none" xmlns="http://www.w3.org/2000/svg">
    <path d="M1585.58 72.5512L1574.64 71.8544C1571.02 71.6236 1567.39 72.2192 1564.05 73.5927L1559.98 75.2718C1555.93 76.9351 1551.48 77.4516 1547.13 76.7581L1542.92 76.0856C1541.4 75.8421 1539.9 75.4499 1538.45 74.9155L1520.13 68.1557C1515.11 66.2994 1509.45 66.8644 1504.93 69.6746L1497.59 74.2283C1495.2 75.7177 1492.05 75.3973 1490.03 73.4567C1487.68 71.2136 1483.91 71.1809 1481.53 73.3839L1474.74 79.6768C1469.83 84.2242 1462.43 85.2013 1456.42 82.0917L1454 80.8332C1447.9 77.6793 1440.52 77.8701 1434.62 81.3349L1424.42 87.32L1409.69 94.024C1405.7 95.8338 1402.35 98.7009 1400.01 102.287L1395.8 108.753C1393.72 111.954 1390.81 114.589 1387.37 116.407L1374.96 122.963C1372.15 124.447 1369.68 126.48 1367.74 128.932L1354.26 145.908C1353.52 146.845 1352.7 147.723 1351.81 148.535L1332.49 166.155C1331.65 166.927 1330.74 167.627 1329.76 168.247L1319.8 174.622C1316.93 176.46 1313.08 175.951 1310.83 173.436C1309.21 171.611 1306.68 170.79 1304.23 171.293L1298.9 172.391C1295.01 173.192 1290.94 172.569 1287.5 170.642L1286.27 169.955C1282.04 167.586 1277.04 166.82 1272.26 167.806L1271.96 167.866C1267.06 168.875 1261.95 168.09 1257.62 165.666C1253.47 163.346 1248.59 162.525 1243.88 163.349L1242.65 163.565C1240.32 163.972 1237.94 164.031 1235.59 163.741L1219.57 161.761C1210.76 160.672 1202.09 164.552 1197.28 171.731L1189.29 183.641C1186.94 187.164 1182.63 189 1178.33 188.314C1174.56 187.712 1170.73 189.046 1168.25 191.831L1167.81 192.32C1163.3 197.373 1155.1 197.205 1150.83 191.97L1150.35 191.394C1148.29 188.879 1145.03 187.565 1141.72 187.919C1138.84 188.225 1135.98 187.273 1133.91 185.322L1133.33 184.769C1130.83 182.415 1127.35 181.296 1123.89 181.732L1114.88 182.868C1108.16 183.714 1102.17 187.363 1098.51 192.841L1097.51 194.332C1097.19 194.816 1096.9 195.324 1096.66 195.851C1094.37 200.796 1088.75 203.479 1083.27 202.235L1011.91 186.049C1003.23 184.081 994.148 187.105 988.597 193.813L966.349 220.7C964.523 222.906 963.153 225.427 962.312 228.128L960.079 235.294C958.098 241.653 953.251 246.822 946.877 249.375L914.096 262.505C912.669 263.076 911.305 263.784 910.026 264.619L883.213 282.103L854.045 301.298C850.711 303.492 848.037 306.49 846.29 309.99L839.341 323.92C838.209 326.187 836.684 328.252 834.831 330.027L832.158 332.587C828.724 335.876 824.297 338.039 819.509 338.769L814.771 339.49C812.573 339.825 810.492 340.662 808.702 341.932C802.373 346.424 793.429 344.963 789 338.712L786.906 335.757C782.593 329.67 774.654 326.999 767.334 329.172L741.2 336.929C739.491 337.438 737.724 337.752 735.938 337.867L704.486 339.882C702.67 339.999 700.876 340.322 699.141 340.843L671.301 349.219C669.079 349.887 666.765 350.228 664.437 350.229L648.34 350.237C643.604 350.24 638.983 348.84 635.107 346.226L613.234 331.484C609.358 328.87 604.737 327.469 600.001 327.472L591.914 327.476L581.965 327.482C578.404 327.484 574.893 328.279 571.707 329.806L558.935 335.924C556.358 337.158 553.566 337.917 550.698 338.162L539.25 339.138C531.807 339.772 524.794 344.037 517.896 346.8C512.963 348.775 506.014 350.313 496.65 350.318C485.062 350.325 472.191 356.477 461.685 363.343C454.875 367.794 432.342 376.905 424.107 376.909C423.117 376.91 420.079 377.077 419.136 377.363C382.656 388.438 371.601 369.1 361.037 363.6C357.58 361.8 353.582 363.326 350.307 365.419L326.703 380.502C320.112 384.713 311.731 385.376 304.512 382.256L292.305 376.979L265.951 366.686C258.895 363.93 250.878 364.706 244.536 368.759L202.019 395.926C200.245 397.06 198.317 397.95 196.288 398.574L142.835 415.013C140.572 415.71 138.209 416.065 135.831 416.066L110.018 416.08C100.437 416.085 91.855 410.388 88.4663 401.774L84.3882 391.407C80.9996 382.794 72.9737 379.549 64.3333 383.526C51.1819 389.58 32.3251 397.723 21.9013 397.728C5.3091 397.738 -45.9448 384.027 -69.4977 377.171" stroke="url(#paint0_linear_41_1734)" stroke-width="2"/>
    <path d="M1606.33 62.9822L1590.59 54.2354C1587.57 52.5584 1584.2 51.5622 1580.72 51.3209L1574.81 50.9119C1571.32 50.6705 1567.82 51.1965 1564.57 52.4508L1559.43 54.4357C1555.8 55.8408 1551.84 56.3299 1547.96 55.8566L1543.47 55.3116C1541.52 55.0745 1539.61 54.6001 1537.79 53.8991L1519.54 46.8716C1514.58 44.9605 1508.96 45.4802 1504.47 48.264L1497.17 52.7892C1494.79 54.266 1491.64 53.916 1489.68 51.9533C1487.39 49.667 1483.59 49.6196 1481.24 51.8458L1474.4 58.3126C1469.42 63.0286 1461.76 63.9298 1455.74 60.5083L1453.85 59.4373C1448.03 56.1306 1440.78 56.1834 1435.01 59.5743L1424.48 65.7745L1408.91 73.1605C1405.18 74.9292 1402.02 77.6361 1399.76 80.9923L1395.09 87.9377C1393.12 90.8722 1390.45 93.3167 1387.31 95.0696L1374.33 102.303C1371.91 103.651 1369.77 105.412 1368.01 107.498L1352.52 125.834L1332.74 145.02C1331.79 145.953 1330.72 146.791 1329.59 147.523L1320.07 153.649C1317.16 155.517 1313.28 155.074 1310.91 152.604C1309.3 150.927 1306.93 150.134 1304.58 150.491L1298.74 151.381C1294.65 152.003 1290.47 151.265 1286.88 149.29L1286.25 148.943C1282.26 146.743 1277.6 145.921 1273.05 146.613L1271.04 146.919C1266.28 147.643 1261.41 146.861 1257.17 144.693C1252.91 142.523 1248.05 141.741 1243.29 142.466L1242.44 142.594C1240.29 142.921 1238.11 142.955 1235.95 142.692L1219.45 140.688C1210.61 139.616 1201.94 143.533 1197.15 150.749L1189.28 162.601C1186.84 166.293 1182.38 168.278 1177.86 167.683L1177.51 167.637C1173.81 167.151 1170.12 168.496 1167.68 171.21C1163.25 176.145 1155.28 176.097 1150.92 171.112L1149.67 169.684C1147.6 167.338 1144.42 166.197 1141.28 166.677C1138.51 167.097 1135.7 166.274 1133.65 164.443L1132.75 163.636C1130.13 161.295 1126.53 160.242 1123 160.78L1113.18 162.274C1107.37 163.159 1102.13 166.153 1098.55 170.639L1097.04 172.515C1096.5 173.193 1096.04 173.931 1095.68 174.712C1093.5 179.443 1088.12 182.008 1082.88 180.818L1011.04 164.497C1002.36 162.524 993.27 165.552 987.718 172.269L965.452 199.205C963.629 201.412 962.26 203.933 961.42 206.633L959.18 213.832C957.201 220.194 952.355 225.365 945.98 227.92L913.172 241.07C911.744 241.642 910.379 242.352 909.099 243.187L882.27 260.697L853.08 279.923C849.747 282.118 847.073 285.118 845.328 288.621L838.369 302.585C837.239 304.853 835.715 306.919 833.862 308.695L831.185 311.261C827.749 314.555 823.319 316.722 818.526 317.452L813.787 318.173C811.589 318.508 809.505 319.347 807.713 320.62C801.382 325.116 792.431 323.653 788.002 317.397L785.9 314.428C781.583 308.331 773.634 305.656 766.304 307.832L740.163 315.597C738.451 316.105 736.684 316.42 734.895 316.535L703.422 318.549C701.605 318.665 699.809 318.989 698.071 319.512L670.214 327.896C667.991 328.565 665.674 328.907 663.342 328.908L647.233 328.913C642.496 328.915 637.872 327.512 633.995 324.895L612.097 310.119C608.22 307.503 603.597 306.1 598.859 306.101L590.764 306.104L580.809 306.108C577.245 306.109 573.73 306.906 570.541 308.434L557.763 314.561C555.185 315.797 552.389 316.557 549.519 316.802L538.064 317.778C530.615 318.412 523.599 322.681 516.697 325.448C511.761 327.427 504.806 328.967 495.433 328.97C483.835 328.975 470.953 335.14 460.44 342.016C453.623 346.476 431.093 355.593 422.849 355.596C421.856 355.596 418.81 355.764 417.865 356.052C381.364 367.137 370.296 347.765 359.725 342.255C356.264 340.45 352.263 341.979 348.985 344.075L325.368 359.179C318.773 363.398 310.384 364.06 303.16 360.933L290.943 355.646L264.568 345.331C257.508 342.569 249.483 343.346 243.136 347.405L200.593 374.612C198.819 375.746 196.889 376.639 194.86 377.264L141.371 393.723C139.104 394.419 136.74 394.775 134.36 394.776L108.517 394.785C98.937 394.789 90.3552 389.09 86.9683 380.475L82.8666 370.043C79.4798 361.427 71.4554 358.184 62.8158 362.164C49.6553 368.226 30.7785 376.385 20.3442 376.389" stroke="url(#paint1_linear_41_1734)" stroke-opacity="0.5" stroke-width="2"/>
    <path d="M1609.62 40.8464L1593.88 32.1007C1590.86 30.4226 1587.49 29.4254 1584.01 29.1841L1578.11 28.7751C1574.61 28.5337 1571.12 29.0597 1567.87 30.314L1562.73 32.2978C1559.1 33.7029 1555.15 34.1909 1551.26 33.7187L1546.77 33.1727C1544.83 32.9366 1542.92 32.4622 1541.1 31.7613L1522.85 24.7316C1517.89 22.8216 1512.28 23.3402 1507.78 26.1251L1500.48 30.6492C1498.1 32.126 1494.96 31.776 1493 29.8133C1490.71 27.527 1486.91 27.4796 1484.56 29.7058L1477.72 36.1716C1472.75 40.8876 1465.08 41.7888 1459.06 38.3672L1457.18 37.2963C1451.36 33.9886 1444.12 34.0413 1438.35 37.4323L1427.81 43.6313L1412.25 51.0152C1408.52 52.785 1405.36 55.4919 1403.11 58.8492L1398.43 65.7924C1396.47 68.728 1393.8 71.1725 1390.65 72.9254L1377.69 80.1564C1375.27 81.5057 1373.13 83.267 1371.36 85.3541L1355.88 103.688L1336.11 122.873C1335.14 123.806 1334.09 124.645 1332.95 125.376L1323.43 131.501C1320.54 133.37 1316.64 132.926 1314.28 130.456C1312.68 128.779 1310.3 127.987 1307.95 128.343L1302.1 129.233C1298.03 129.854 1293.85 129.117 1290.25 127.141L1289.63 126.794C1285.62 124.595 1280.97 123.772 1276.42 124.465L1274.42 124.77C1269.67 125.494 1264.8 124.712 1260.55 122.542C1256.29 120.373 1251.42 119.592 1246.68 120.315L1245.83 120.444C1243.68 120.77 1241.5 120.803 1239.34 120.542L1222.85 118.538C1214.01 117.466 1205.33 121.384 1200.54 128.6L1192.68 140.449C1190.24 144.14 1185.77 146.124 1181.27 145.531L1180.92 145.484C1177.22 144.998 1173.52 146.342 1171.08 149.057C1166.65 153.99 1158.69 153.943 1154.33 148.959L1153.08 147.529C1151.01 145.184 1147.83 144.042 1144.69 144.522C1141.92 144.943 1139.12 144.119 1137.07 142.288L1136.16 141.481C1133.55 139.14 1129.95 138.087 1126.42 138.624L1116.62 140.117C1110.79 141.004 1105.55 143.997 1101.97 148.485L1100.46 150.36C1099.92 151.037 1099.47 151.774 1099.1 152.556C1096.92 157.286 1091.54 159.852 1086.3 158.661L1014.5 142.339C1005.81 140.365 996.718 143.393 991.166 150.112L968.911 177.044C967.087 179.25 965.719 181.771 964.88 184.472L962.641 191.669C960.663 198.032 955.817 203.204 949.442 205.759L916.646 218.906C915.218 219.478 913.853 220.187 912.572 221.023L885.751 238.533L856.571 257.756C853.238 259.952 850.566 262.952 848.82 266.454L841.864 280.418C840.734 282.685 839.21 284.752 837.358 286.528L834.684 289.093C831.248 292.387 826.817 294.554 822.023 295.285L817.289 296.005C815.091 296.34 813.007 297.179 811.217 298.451C804.888 302.948 795.939 301.485 791.512 295.23L789.408 292.258C785.093 286.163 777.144 283.486 769.816 285.664L743.685 293.425C741.972 293.934 740.203 294.25 738.416 294.363L706.952 296.377C705.135 296.493 703.339 296.816 701.6 297.339L673.755 305.722C671.53 306.392 669.212 306.733 666.881 306.733L650.782 306.739C646.042 306.74 641.418 305.336 637.541 302.719L615.652 287.944C611.774 285.327 607.15 283.923 602.412 283.925L594.323 283.927L584.373 283.931C580.808 283.932 577.291 284.729 574.101 286.259L561.331 292.382C558.753 293.618 555.956 294.378 553.085 294.623L541.641 295.599C534.191 296.233 527.173 300.503 520.271 303.27C515.336 305.248 508.384 306.787 499.017 306.79C487.421 306.794 474.541 312.959 464.03 319.836C457.215 324.295 434.697 333.41 426.453 333.413C425.46 333.413 422.413 333.581 421.468 333.868C384.98 344.951 373.914 325.583 363.345 320.069C359.885 318.264 355.882 319.793 352.604 321.89L329.001 336.989C322.404 341.208 314.014 341.871 306.789 338.744L294.579 333.457L268.216 323.143C261.155 320.38 253.127 321.157 246.779 325.218L204.255 352.418C202.48 353.553 200.549 354.447 198.519 355.071L145.049 371.527C142.782 372.224 140.416 372.58 138.036 372.581L112.205 372.589C102.625 372.592 94.0438 366.894 90.6573 358.278L86.5565 347.846C83.17 339.231 75.146 335.987 66.5066 339.968C53.3499 346.03 34.4809 354.186 24.0501 354.19C7.45002 354.195 -43.8315 340.452 -67.3971 333.58" stroke="url(#paint2_linear_41_1734)" stroke-opacity="0.25" stroke-width="2"/>
    <path d="M1606.33 18.7106L1590.59 9.9649C1587.57 8.2868 1584.2 7.28963 1580.72 7.04825L1574.82 6.63926C1571.32 6.39788 1567.83 6.92386 1564.58 8.17822L1559.44 10.162C1555.81 11.5671 1551.86 12.0551 1547.97 11.5829L1543.48 11.0369C1541.54 10.8008 1539.63 10.3264 1537.81 9.62548L1519.56 2.59578C1514.6 0.685775 1508.99 1.20439 1504.49 3.98928L1497.19 8.51343C1494.81 9.9902 1491.67 9.64024 1489.71 7.67754C1487.42 5.39123 1483.62 5.34379 1481.27 7.57001L1474.44 14.0358C1469.46 18.7518 1461.79 19.653 1455.77 16.2314L1453.89 15.1605C1448.07 11.8528 1440.83 11.9055 1435.06 15.2965L1424.52 21.4955L1408.96 28.8794C1405.23 30.6492 1402.08 33.3561 1399.82 36.7134L1395.15 43.6566C1393.18 46.5922 1390.51 49.0367 1387.36 50.7896L1374.4 58.0206C1371.98 59.3699 1369.84 61.1312 1368.07 63.2183L1352.59 81.552L1332.82 100.737C1331.85 101.67 1330.8 102.509 1329.66 103.24L1320.14 109.365C1317.25 111.234 1313.36 110.79 1310.99 108.321C1309.39 106.643 1307.01 105.851 1304.66 106.207L1298.82 107.097C1294.74 107.719 1290.56 106.981 1286.96 105.005L1286.34 104.659C1282.33 102.459 1277.69 101.637 1273.13 102.329L1271.13 102.634C1266.38 103.358 1261.51 102.576 1257.26 100.406C1253 98.2371 1248.13 97.4561 1243.39 98.1792L1242.54 98.3078C1240.39 98.6345 1238.21 98.6672 1236.05 98.4058L1219.56 96.402C1210.72 95.33 1202.04 99.248 1197.25 106.464L1189.39 118.313C1186.95 122.005 1182.48 123.988 1177.98 123.395L1177.63 123.349C1173.93 122.863 1170.23 124.207 1167.79 126.921C1163.36 131.854 1155.4 131.808 1151.04 126.823L1149.79 125.394C1147.72 123.048 1144.54 121.907 1141.4 122.386C1138.63 122.807 1135.83 121.984 1133.78 120.153L1132.87 119.345C1130.26 117.004 1126.66 115.951 1123.13 116.489L1113.33 117.981C1107.5 118.868 1102.26 121.861 1098.68 126.35L1097.17 128.224C1096.63 128.902 1096.17 129.638 1095.81 130.42C1093.63 135.15 1088.25 137.716 1083.01 136.525L1011.21 120.203C1002.52 118.229 993.428 121.257 987.876 127.976L965.621 154.908C963.798 157.114 962.429 159.636 961.59 162.336L959.351 169.533C957.373 175.896 952.527 181.068 946.152 183.623L913.356 196.77C911.928 197.342 910.563 198.052 909.283 198.888L882.461 216.397L853.282 235.62C849.948 237.816 847.276 240.816 845.53 244.319L838.574 258.282C837.445 260.549 835.92 262.616 834.068 264.393L831.394 266.957C827.959 270.251 823.527 272.418 818.733 273.149L814 273.869C811.801 274.204 809.718 275.043 807.927 276.315C801.598 280.812 792.649 279.349 788.223 273.094L786.118 270.123C781.804 264.027 773.855 261.351 766.527 263.528L740.395 271.289C738.683 271.799 736.914 272.114 735.127 272.228L703.663 274.241C701.846 274.357 700.05 274.68 698.311 275.203L670.465 283.586C668.24 284.256 665.922 284.597 663.591 284.597L647.492 284.604C642.753 284.605 638.129 283.201 634.251 280.583L612.363 265.808C608.484 263.191 603.86 261.787 599.122 261.789L591.033 261.791L581.083 261.795C577.518 261.796 574.002 262.593 570.812 264.123L558.042 270.246C555.464 271.482 552.666 272.242 549.796 272.487L538.351 273.463C530.901 274.098 523.884 278.368 516.981 281.135C512.047 283.112 505.095 284.651 495.727 284.654C484.131 284.658 471.251 290.823 460.74 297.701C453.925 302.159 431.407 311.274 423.163 311.277C422.171 311.277 419.124 311.445 418.178 311.733C381.69 322.815 370.624 303.447 360.056 297.934C356.595 296.128 352.593 297.657 349.314 299.754L325.712 314.853C319.115 319.072 310.724 319.735 303.499 316.608L291.289 311.322L264.927 301.007C257.865 298.245 249.837 299.021 243.489 303.082L200.965 330.282C199.191 331.418 197.26 332.312 195.229 332.936L141.759 349.391C139.493 350.089 137.126 350.444 134.747 350.445L108.916 350.453C99.3359 350.457 90.7542 344.758 87.3677 336.142L83.2669 325.71C79.8804 317.095 71.8565 313.851 63.217 317.833C50.0603 323.895 31.1913 332.05 20.7606 332.054C4.16044 332.06 -47.1211 318.316 -70.6867 311.444" stroke="url(#paint3_linear_41_1734)" stroke-opacity="0.1" stroke-width="2" />
    <defs>
        <linearGradient id="paint0_linear_41_1734" x1="1556.38" y1="80.0637" x2="8.57961" y2="384.839" gradientUnits="userSpaceOnUse">
            <stop stop-color="transparent"/>
            <stop offset="0.203125" stop-color="#FFA000">
                <animate attributeName="stop-color" values="#FFA000; #FFC86B; #577EF8; #3566FF; #FFA000" dur="3s" repeatCount="indefinite"/>
            </stop>
            <stop offset="0.44375" stop-color="#FFC86B">
                <animate attributeName="stop-color" values="#FFC86B; #577EF8; #3566FF; #FFA000; #FFC86B" dur="3s" repeatCount="indefinite"/>
            </stop>
            <stop offset="0.66715" stop-color="#577EF8">
                <animate attributeName="stop-color" values="#577EF8; #3566FF; #FFA000; #FFC86B; #577EF8" dur="3s" repeatCount="indefinite"/>
            </stop>
            <stop offset="0.757084" stop-color="#3566FF">
                <animate attributeName="stop-color" values="#3566FF; #FFA000; #FFC86B; #577EF8; #3566FF" dur="3s" repeatCount="indefinite"/>
            </stop>
            <stop offset="0.994792" stop-color="transparent"/>
        </linearGradient>
        <linearGradient id="paint1_linear_41_1734" x1="1572.34" y1="55.9083" x2="0.0951609" y2="371.666" gradientUnits="userSpaceOnUse">
            <stop stop-color="transparent"/>
            <stop offset="0.203125" stop-color="#FFA000">
                <animate attributeName="stop-color" values="#FFA000; #FFC86B; #577EF8; #3566FF; #FFA000" dur="3s" repeatCount="indefinite"/>
            </stop>
            <stop offset="0.44375" stop-color="#FFC86B">
                <animate attributeName="stop-color" values="#FFC86B; #577EF8; #3566FF; #FFA000; #FFC86B" dur="3s" repeatCount="indefinite"/>
            </stop>
            <stop offset="0.66715" stop-color="#577EF8">
                <animate attributeName="stop-color" values="#577EF8; #3566FF; #FFA000; #FFC86B; #577EF8" dur="3s" repeatCount="indefinite"/>
            </stop>
            <stop offset="0.757084" stop-color="#3566FF">
                <animate attributeName="stop-color" values="#3566FF; #FFA000; #FFC86B; #577EF8; #3566FF" dur="3s" repeatCount="indefinite"/>
            </stop>
            <stop offset="0.994792" stop-color="transparent"/>
        </linearGradient>
        <linearGradient id="paint2_linear_41_1734" x1="1576.88" y1="33.5828" x2="11.7464" y2="342.251" gradientUnits="userSpaceOnUse">
            <stop stop-color="transparent"/>
            <stop stop-color="transparent"/>
            <stop offset="0.203125" stop-color="#FFA000">
                <animate attributeName="stop-color" values="#FFA000; #FFC86B; #577EF8; #035DFA; #FFA000" dur="3s" repeatCount="indefinite"/>
            </stop>
            <stop offset="0.44375" stop-color="#FFC86B">
                <animate attributeName="stop-color" values="#FFC86B; #577EF8; #035DFA; #FFA000; #FFC86B" dur="3s" repeatCount="indefinite"/>
            </stop>
            <stop offset="0.66715" stop-color="#577EF8">
                <animate attributeName="stop-color" values="#577EF8; #035DFA; #FFA000; #FFC86B; #577EF8" dur="3s" repeatCount="indefinite"/>
            </stop>
            <stop offset="0.757084" stop-color="#3566FF">
                <animate attributeName="stop-color" values="#3566FF; #FFA000; #FFC86B; #577EF8; #035DFA" dur="3s" repeatCount="indefinite"/>
            </stop>
        </linearGradient>
        <linearGradient id="paint3_linear_41_1734" x1="1573.59" y1="11.447" x2="8.45685" y2="320.116" gradientUnits="userSpaceOnUse">
            <stop stop-color="transparent"/>
            <stop offset="0.203125" stop-color="#FFA000">
                <animate attributeName="stop-color" values="#FFA000; #FFC86B; #577EF8; #3566FF; #FFA000" dur="3s" repeatCount="indefinite"/>
            </stop>
            <stop offset="0.44375" stop-color="#FFC86B">
                <animate attributeName="stop-color" values="#FFC86B; #577EF8; #3566FF; #FFA000; #FFC86B" dur="3s" repeatCount="indefinite"/>
            </stop>
            <stop offset="0.66715" stop-color="#577EF8">
                <animate attributeName="stop-color" values="#577EF8; #3566FF; #FFA000; #FFC86B; #577EF8" dur="3s" repeatCount="indefinite"/>
            </stop>
            <stop offset="0.757084" stop-color="#3566FF">
                <animate attributeName="stop-color" values="#3566FF; #FFA000; #FFC86B; #577EF8; #3566FF" dur="3s" repeatCount="indefinite"/>
            </stop>
            <stop offset="0.994792" stop-color="transparent"/>
        </linearGradient>
    </defs>
</svg>
